<?xml version="1.0" standalone="no"?>
<!DOCTYPE svg PUBLIC "-//W3C//DTD SVG 20010904//EN"
 "http://www.w3.org/TR/2001/REC-SVG-20010904/DTD/svg10.dtd">
<svg version="1.0" xmlns="http://www.w3.org/2000/svg"
 width="612.000000pt" height="612.000000pt" viewBox="0 0 612.000000 612.000000"
 preserveAspectRatio="xMidYMid meet">
<metadata>
Created by potrace 1.14, written by Peter Selinger 2001-2017
</metadata>
<g transform="translate(0.000000,612.000000) scale(0.100000,-0.100000)"
fill="#000000" stroke="none">
<path d="M1715 4473 c-161 -36 -286 -158 -309 -298 -3 -22 -26 -231 -51 -465
-45 -429 -80 -760 -136 -1280 -19 -175 -28 -306 -25 -339 19 -164 174 -304
366 -331 41 -6 363 -22 715 -35 352 -14 969 -39 1370 -56 402 -17 756 -28 788
-26 113 10 228 90 282 197 29 58 34 92 85 570 17 157 39 371 50 475 12 105 32
294 46 420 15 127 27 275 28 330 1 90 -2 106 -26 158 -36 77 -121 159 -190
185 -29 11 -174 41 -323 66 -148 26 -306 53 -350 61 -88 16 -770 134 -1130
196 -126 21 -412 70 -635 109 -375 65 -490 78 -555 63z m2395 -550 c67 -24
125 -75 157 -141 l28 -57 0 -815 c0 -806 0 -816 -21 -860 -43 -92 -116 -151
-210 -170 -50 -9 -91 -7 -744 40 -151 11 -502 36 -780 55 -339 24 -518 40
-545 50 -61 22 -111 69 -142 133 l-28 57 -3 664 c-2 448 1 681 8 715 22 103
110 195 200 210 19 3 292 24 605 46 314 22 629 44 700 50 72 5 200 14 285 20
85 6 200 15 255 19 116 10 173 6 235 -16z"/>
<path d="M2628 3341 l-33 -29 -3 -397 -3 -396 35 -35 c57 -57 62 -56 436 154
305 171 337 192 354 226 16 33 17 43 7 78 -14 45 -21 50 -286 200 -455 257
-446 254 -507 199z"/>
</g>
</svg>
